<svg xmlns="http://www.w3.org/2000/svg" viewBox="0 0 24 24" role="img" aria-label="LinkedIn">
  <title>LinkedIn</title>
  <rect width="24" height="24" rx="4.5" fill="#0A66C2"/>
  <path fill="#fff" d="M8.4 17.2V11h2.05v6.2H8.4zm1.05-7.35c-.66 0-1.1-.42-1.1-1.02 0-.61.44-1.02 1.1-1.02.67 0 1.1.41 1.1 1.02 0 .6-.43 1.02-1.1 1.02zm5.5 7.35v-3.45c0-2.05-1.1-3-2.55-3-1.15 0-1.65.62-1.95 1.05h-.03V11h-1.98c.03.55-.02 3.6-.02 6.2h2.05v-3.5c0-.55.1-1.1.4-1.5.3-.4.8-.68 1.42-.68 1 0 1.45.77 1.45 1.85v3.83h2.05z"/>
</svg>
